<svg id="图层_1" data-name="图层 1" xmlns="http://www.w3.org/2000/svg" viewBox="0 0 32 32"><defs><style>.cls-1{fill:#aaa;}.cls-2{fill:#00d8ff;}.cls-3{fill:#41b883;}.cls-4{fill:#35495e;}</style></defs><path class="cls-1" d="M6.67,20v2.67a2.67,2.67,0,0,0,2.46,2.66h4.2V28h-4A5.33,5.33,0,0,1,4,22.67V20Z"/><path class="cls-1" d="M22.67,4A5.33,5.33,0,0,1,28,9.33V12H25.33V9.33a2.66,2.66,0,0,0-2.66-2.66h-4V4Z"/><path class="cls-2" d="M28,18.12,27.43,18c0-.12.06-.24.08-.36.4-1.94.14-3.51-.75-4s-2.26,0-3.68,1.26l-.41.37-.27-.25c-1.48-1.32-3-1.87-3.86-1.35s-1.11,2-.75,3.81a5.23,5.23,0,0,0,.12.54c-.21.06-.42.12-.61.19-1.74.61-2.85,1.56-2.85,2.55s1.19,2,3,2.65l.45.14c0,.2-.09.39-.13.59-.35,1.81-.08,3.25.78,3.74s2.36,0,3.8-1.27l.35-.32.44.41c1.4,1.2,2.78,1.68,3.63,1.19s1.17-2.06.8-3.93c0-.15-.07-.3-.1-.44l.3-.1c1.89-.62,3.11-1.63,3.11-2.66S29.74,18.73,28,18.12Zm-.41,4.55-.27.09a15.63,15.63,0,0,0-.84-2.08,16.26,16.26,0,0,0,.8-2.05l.49.15c1.52.52,2.45,1.3,2.45,1.9S29.18,22.14,27.55,22.67ZM26.88,24A6.26,6.26,0,0,1,27,26.18a1.46,1.46,0,0,1-.54,1c-.52.3-1.63-.09-2.82-1.12l-.42-.37A16.17,16.17,0,0,0,24.56,24a15.8,15.8,0,0,0,2.23-.35Zm-6.83,3.14a1.44,1.44,0,0,1-1.15,0c-.52-.3-.74-1.45-.44-3a5.23,5.23,0,0,1,.12-.54,19.21,19.21,0,0,0,2.21.32,18.36,18.36,0,0,0,1.41,1.74l-.31.29A6.17,6.17,0,0,1,20.05,27.15Zm-2.37-4.48a5.94,5.94,0,0,1-1.92-1,1.47,1.47,0,0,1-.61-1c0-.6.89-1.37,2.38-1.89l.57-.17a14.88,14.88,0,0,0,.8,2.07,15.92,15.92,0,0,0-.81,2.11Zm.8-5.41c-.31-1.58-.11-2.77.41-3.07s1.76.14,3,1.28l.25.22a16.87,16.87,0,0,0-1.4,1.74,15.94,15.94,0,0,0-2.19.34c0-.17-.08-.34-.11-.51ZM25.56,19c-.16-.28-.32-.55-.5-.82.53.07,1,.15,1.5.26-.14.46-.32.93-.52,1.42C25.89,19.58,25.73,19.29,25.56,19ZM22.67,16.2a14.5,14.5,0,0,1,1,1.16c-.65,0-1.29,0-1.94,0A14.5,14.5,0,0,1,22.67,16.2ZM19.76,19c-.16.28-.31.56-.46.85-.2-.49-.38-1-.52-1.43.47-.1,1-.19,1.49-.25-.18.27-.34.55-.51.83Zm.52,4.19c-.54-.06-1-.14-1.51-.24a13.5,13.5,0,0,1,.53-1.45c.15.28.3.57.47.85S20.11,22.94,20.28,23.21Zm2.41,2c-.33-.36-.66-.75-1-1.18l1,0,1,0C23.34,24.45,23,24.85,22.69,25.2ZM26,21.49c.22.5.41,1,.56,1.45-.48.11-1,.19-1.54.26.18-.28.34-.55.51-.84S25.89,21.79,26,21.49ZM25,22c-.25.43-.51.86-.79,1.27q-.75.06-1.5.06c-.52,0-1,0-1.49-.05-.29-.41-.55-.84-.81-1.27h0c-.25-.44-.48-.88-.7-1.33.22-.45.45-.89.7-1.32h0c.25-.44.52-.86.8-1.27q.73-.06,1.5-.06h0c.5,0,1,0,1.49.06.28.41.55.83.8,1.26s.48.88.7,1.32C25.45,21.13,25.21,21.58,25,22Zm1.45-7.84c.55.32.76,1.6.42,3.28,0,.11,0,.21-.08.32a17.51,17.51,0,0,0-2.2-.34,17.33,17.33,0,0,0-1.38-1.74l.37-.34C24.76,14.29,25.89,13.87,26.41,14.17Zm-3.74,5a1.47,1.47,0,1,1-1.47,1.47A1.46,1.46,0,0,1,22.67,19.21Z"/><path class="cls-3" d="M14.62,4h3.14L9.91,17.54,2.06,4h6L9.91,7.14,11.71,4Z"/><path class="cls-3" d="M2.06,4,9.91,17.54,17.76,4H14.62L9.91,12.12,5.16,4Z"/><path class="cls-4" d="M5.16,4l4.75,8.16L14.62,4H11.71L9.91,7.14,8.06,4Z"/></svg>